<svg width="35" height="30" viewBox="0 0 35 30" fill="none" xmlns="http://www.w3.org/2000/svg">
<path d="M12.4463 25.1932C12.4463 25.4981 11.5819 26.2298 11.2769 26.5346C10.4532 27.3578 8.97879 28.181 7.80941 28.181C5.1656 28.181 3.55898 26.8395 3.55898 24.1058C3.55898 20.1627 7.98228 19.7257 10.9311 19.1668L12.4463 18.8619V25.1932V25.1932ZM15.9137 15.9554C15.9137 11.057 13.4428 8.67896 8.88727 8.67896C6.32481 8.67896 3.98605 9.63424 1.90151 11.057V13.4859H2.37943C2.68449 12.5306 4.37246 10.4981 7.54503 10.4981C10.799 10.4981 12.6191 12.3578 12.6191 15.5692C12.6191 17.6525 11.4497 17.9066 8.02295 18.4757C3.94538 19.1159 0 19.7664 0 24.7155C0 27.9269 2.68449 30.0001 5.76554 30.0001C8.36868 30.0001 10.3617 29.0956 12.192 27.2664L12.5784 26.8802C12.9242 29.4412 14.7952 29.7867 17.0424 29.3903C17.5203 29.309 18.0389 29.0855 18.344 28.9533V27.9981C15.7815 28.557 15.9137 27.6932 15.9137 26.0062V15.9554Z" fill="#181818"/>
<path d="M23.0315 27.4898C25.6753 27.5711 28.2784 27.3984 30.8815 27.3171C32.2645 27.2764 33.6169 27.1037 34.9998 26.9309C34.9591 27.4085 34.8676 27.8049 34.8676 28.2317C34.8676 28.6687 34.9591 29.0955 34.9998 29.5325H19.2183V0C19.8284 0.0406504 20.4792 0.132114 21.1299 0.132114C21.7299 0.132114 22.34 0.050813 23.0416 0V27.4898H23.0315Z" fill="#181818"/>
</svg>
